<svg version="1.0" xmlns="http://www.w3.org/2000/svg" width="512" height="512" viewBox="0 0 512 512">
<g transform="translate(-256,768) scale(0.2,-0.2)" fill="#2b4079" stroke="none">
<path d="M2405 3214 c-163 -35 -289 -130 -335 -252 -29 -75 -30 -196 -4 -266 11 -27 24 -51 29 -52 6 -2 21 22 34 54 33 77 147 192 226 228 167 77 339 73 524 -12 41 -19 75 -33 76 -32 1 2 22 55 47 118 53 132 56 122 -55 167 -146 60 -384 80 -542 47z"/>
<path d="M2373 2748 c-43 -53 -56 -144 -29 -196 32 -61 93 -101 196 -127 196 -49 250 -83 250 -155 0 -36 -6 -48 -34 -75 -98 -92 -381 -69 -579 47 -27 16 -52 26 -56 24 -4 -3 -29 -55 -55 -116 -56 -128 -60 -116 52 -171 155 -76 423 -109 602 -75 227 42 367 178 378 365 6 107 -14 174 -74 240 -63 71 -152 111 -364 166 -96 25 -193 52 -215 61 -22 9 -45 18 -51 21 -6 2 -15 -2 -21 -9z"/>
</g>
</svg>